<svg xmlns="http://www.w3.org/2000/svg" version="1.1" xmlns:xlink="http://www.w3.org/1999/xlink" xmlns:svgjs="http://svgjs.com/svgjs" width="1438" height="560" preserveAspectRatio="none" viewBox="0 0 1438 560"><g mask="url(&quot;#SvgjsMask4373&quot;)" fill="none"><rect width="1438" height="560" x="0" y="0" fill="#0e2a47"></rect><g mask="url(&quot;#SvgjsMask4375&quot;)"><path d="M344 280L360 264L376 264L392 264L408 264M264 296L280 280L296 280L312 280L328 264L344 264M632 296L648 280L664 264M712 280L728 264L744 264L760 264L776 264L792 264M248 296L264 280L280 264L296 264L312 264M616 296L632 280M728 280L744 296L760 296L776 296L792 296L808 296L824 296L840 296L856 296L872 296L888 296L904 280L920 280L936 280L952 280L968 280L984 280L1000 280L1016 280M472 280L488 264L504 264M808 280L824 264M504 280L520 280M584 296L600 312L616 312L632 312L648 312M856 280L872 264L888 264L904 264L920 264M680 280L696 264L712 248L728 248M840 280L856 264L872 248L888 248L904 248L920 248L936 248L952 264L968 264L984 264L1000 248L1016 248L1032 248L1048 248L1064 232L1080 232L1096 232L1112 248L1128 264L1144 264L1160 264M-8 280L8 280L24 280L40 280L56 280L72 280L88 280L104 280L120 280L136 280L152 280L168 280L184 280L200 280L216 280L232 280L248 296L264 296L280 296L296 296L312 296L328 280L344 280L360 280L376 280L392 280L408 280L424 280L440 280L456 280L472 280L488 280L504 280L520 296L536 296L552 296L568 296L584 296L600 296L616 296L632 296L648 296L664 280L680 280L696 280L712 280L728 280L744 280L760 280L776 280L792 280L808 280L824 280L840 280L856 280L872 280L888 280" stroke="url(#SvgjsLinearGradient4374)" stroke-width="2.67"></path><path d="M884 280 a4 4 0 1 0 8 0 a4 4 0 1 0 -8 0zM404 264 a4 4 0 1 0 8 0 a4 4 0 1 0 -8 0zM340 264 a4 4 0 1 0 8 0 a4 4 0 1 0 -8 0zM660 264 a4 4 0 1 0 8 0 a4 4 0 1 0 -8 0zM788 264 a4 4 0 1 0 8 0 a4 4 0 1 0 -8 0zM308 264 a4 4 0 1 0 8 0 a4 4 0 1 0 -8 0zM628 280 a4 4 0 1 0 8 0 a4 4 0 1 0 -8 0zM1012 280 a4 4 0 1 0 8 0 a4 4 0 1 0 -8 0zM500 264 a4 4 0 1 0 8 0 a4 4 0 1 0 -8 0zM820 264 a4 4 0 1 0 8 0 a4 4 0 1 0 -8 0zM516 280 a4 4 0 1 0 8 0 a4 4 0 1 0 -8 0zM644 312 a4 4 0 1 0 8 0 a4 4 0 1 0 -8 0zM916 264 a4 4 0 1 0 8 0 a4 4 0 1 0 -8 0zM724 248 a4 4 0 1 0 8 0 a4 4 0 1 0 -8 0zM1156 264 a4 4 0 1 0 8 0 a4 4 0 1 0 -8 0z" fill="url(#SvgjsLinearGradient4374)"></path><path d="M216 296L232 312L248 328M376 312L392 312L408 312M440 296L456 312L472 312L488 312L504 312M360 312L376 296M552 328L568 312L584 312M344 312L360 296M712 328L728 312L744 312M280 312L296 328L312 328L328 328L344 328L360 328L376 328L392 328L408 328L424 328L440 328L456 328L472 328L488 328L504 328L520 328L536 328M168 296L184 312L200 312L216 328L232 328M696 328L712 312L728 296M760 328L776 328L792 328L808 328L824 312M328 312L344 296M-8 296L8 296L24 296L40 296L56 296L72 296L88 296L104 296L120 296L136 296L152 296L168 296L184 296L200 296L216 296L232 296L248 312L264 312L280 312L296 312L312 312L328 312L344 312L360 312L376 312L392 296L408 296L424 296L440 296L456 296L472 296L488 296L504 296L520 312L536 312L552 328L568 328L584 328L600 328L616 328L632 328L648 328L664 328L680 328L696 328L712 328L728 328L744 328L760 328L776 312" stroke="url(#SvgjsLinearGradient4374)" stroke-width="2.67"></path><path d="M772 312 a4 4 0 1 0 8 0 a4 4 0 1 0 -8 0zM244 328 a4 4 0 1 0 8 0 a4 4 0 1 0 -8 0zM404 312 a4 4 0 1 0 8 0 a4 4 0 1 0 -8 0zM500 312 a4 4 0 1 0 8 0 a4 4 0 1 0 -8 0zM372 296 a4 4 0 1 0 8 0 a4 4 0 1 0 -8 0zM580 312 a4 4 0 1 0 8 0 a4 4 0 1 0 -8 0zM356 296 a4 4 0 1 0 8 0 a4 4 0 1 0 -8 0zM740 312 a4 4 0 1 0 8 0 a4 4 0 1 0 -8 0zM532 328 a4 4 0 1 0 8 0 a4 4 0 1 0 -8 0zM228 328 a4 4 0 1 0 8 0 a4 4 0 1 0 -8 0zM724 296 a4 4 0 1 0 8 0 a4 4 0 1 0 -8 0zM820 312 a4 4 0 1 0 8 0 a4 4 0 1 0 -8 0zM340 296 a4 4 0 1 0 8 0 a4 4 0 1 0 -8 0z" fill="url(#SvgjsLinearGradient4374)"></path><path d="M584 264L600 248M552 264L568 248L584 248L600 232L616 232L632 232L648 232L664 232M312 248L328 232L344 232L360 232L376 232L392 232L408 232M120 264L136 248L152 248M296 248L312 232M248 248L264 264M424 248L440 264L456 264L472 264M456 248L472 232L488 232L504 232L520 232L536 232L552 248M600 264L616 280M520 264L536 248M-8 264L8 264L24 264L40 264L56 264L72 264L88 264L104 264L120 264L136 264L152 264L168 264L184 264L200 264L216 264L232 248L248 248L264 248L280 248L296 248L312 248L328 248L344 248L360 248L376 248L392 248L408 248L424 248L440 248L456 248L472 248L488 248L504 248L520 264L536 264L552 264L568 264L584 264L600 264L616 264L632 264" stroke="url(#SvgjsLinearGradient4374)" stroke-width="2.67"></path><path d="M628 264 a4 4 0 1 0 8 0 a4 4 0 1 0 -8 0zM596 248 a4 4 0 1 0 8 0 a4 4 0 1 0 -8 0zM660 232 a4 4 0 1 0 8 0 a4 4 0 1 0 -8 0zM404 232 a4 4 0 1 0 8 0 a4 4 0 1 0 -8 0zM148 248 a4 4 0 1 0 8 0 a4 4 0 1 0 -8 0zM308 232 a4 4 0 1 0 8 0 a4 4 0 1 0 -8 0zM260 264 a4 4 0 1 0 8 0 a4 4 0 1 0 -8 0zM468 264 a4 4 0 1 0 8 0 a4 4 0 1 0 -8 0zM548 248 a4 4 0 1 0 8 0 a4 4 0 1 0 -8 0zM612 280 a4 4 0 1 0 8 0 a4 4 0 1 0 -8 0zM532 248 a4 4 0 1 0 8 0 a4 4 0 1 0 -8 0z" fill="url(#SvgjsLinearGradient4374)"></path><path d="M344 344L360 344L376 344M824 328L840 344M136 312L152 312M840 328L856 312L872 312L888 312L904 312M744 344L760 360L776 360M680 344L696 360L712 360L728 360L744 360M856 328L872 344L888 344L904 344L920 344M264 344L280 328M792 344L808 360L824 360L840 360L856 360M808 344L824 344M-8 312L8 312L24 312L40 312L56 312L72 312L88 312L104 312L120 312L136 312L152 328L168 328L184 328L200 328L216 344L232 344L248 344L264 344L280 344L296 344L312 344L328 344L344 344L360 360L376 360L392 344L408 344L424 344L440 344L456 344L472 344L488 344L504 344L520 344L536 344L552 344L568 344L584 344L600 344L616 344L632 344L648 344L664 344L680 344L696 344L712 344L728 344L744 344L760 344L776 344L792 344L808 344L824 328L840 328L856 328L872 328L888 328" stroke="url(#SvgjsLinearGradient4374)" stroke-width="2.67"></path><path d="M884 328 a4 4 0 1 0 8 0 a4 4 0 1 0 -8 0zM372 344 a4 4 0 1 0 8 0 a4 4 0 1 0 -8 0zM836 344 a4 4 0 1 0 8 0 a4 4 0 1 0 -8 0zM148 312 a4 4 0 1 0 8 0 a4 4 0 1 0 -8 0zM900 312 a4 4 0 1 0 8 0 a4 4 0 1 0 -8 0zM772 360 a4 4 0 1 0 8 0 a4 4 0 1 0 -8 0zM740 360 a4 4 0 1 0 8 0 a4 4 0 1 0 -8 0zM916 344 a4 4 0 1 0 8 0 a4 4 0 1 0 -8 0zM276 328 a4 4 0 1 0 8 0 a4 4 0 1 0 -8 0zM852 360 a4 4 0 1 0 8 0 a4 4 0 1 0 -8 0zM820 344 a4 4 0 1 0 8 0 a4 4 0 1 0 -8 0z" fill="url(#SvgjsLinearGradient4374)"></path><path d="M376 200L392 216L408 216L424 216M552 216L568 232L584 232M312 216L328 216L344 216L360 216L376 216M152 232L168 232M456 216L472 200M600 216L616 200L632 200M104 248L120 248M584 216L600 200M88 248L104 232M424 200L440 200L456 200M-8 248L8 248L24 248L40 248L56 248L72 248L88 248L104 248L120 232L136 232L152 232L168 248L184 248L200 248L216 248L232 232L248 232L264 232L280 232L296 216L312 216L328 200L344 200L360 200L376 200L392 200L408 200L424 200L440 216L456 216L472 216L488 216L504 216L520 216L536 216L552 216L568 216L584 216L600 216L616 216" stroke="url(#SvgjsLinearGradient4374)" stroke-width="2.67"></path><path d="M612 216 a4 4 0 1 0 8 0 a4 4 0 1 0 -8 0zM420 216 a4 4 0 1 0 8 0 a4 4 0 1 0 -8 0zM580 232 a4 4 0 1 0 8 0 a4 4 0 1 0 -8 0zM372 216 a4 4 0 1 0 8 0 a4 4 0 1 0 -8 0zM164 232 a4 4 0 1 0 8 0 a4 4 0 1 0 -8 0zM468 200 a4 4 0 1 0 8 0 a4 4 0 1 0 -8 0zM628 200 a4 4 0 1 0 8 0 a4 4 0 1 0 -8 0zM116 248 a4 4 0 1 0 8 0 a4 4 0 1 0 -8 0zM596 200 a4 4 0 1 0 8 0 a4 4 0 1 0 -8 0zM100 232 a4 4 0 1 0 8 0 a4 4 0 1 0 -8 0zM452 200 a4 4 0 1 0 8 0 a4 4 0 1 0 -8 0z" fill="url(#SvgjsLinearGradient4374)"></path><path d="M520 360L536 376M584 360L600 376L616 376L632 376L648 376M568 360L584 376M392 360L408 376L424 376L440 376M504 360L520 376M664 376L680 360M648 360L664 360M376 376L392 376M-8 328L8 328L24 328L40 328L56 328L72 328L88 328L104 328L120 328L136 328L152 344L168 344L184 344L200 344L216 360L232 360L248 360L264 360L280 360L296 360L312 360L328 360L344 360L360 376L376 376L392 360L408 360L424 360L440 360L456 360L472 360L488 360L504 360L520 360L536 360L552 360L568 360L584 360L600 360L616 360L632 360L648 360L664 376L680 376L696 376L712 376L728 376L744 376L760 376L776 376" stroke="url(#SvgjsLinearGradient4374)" stroke-width="2.67"></path><path d="M772 376 a4 4 0 1 0 8 0 a4 4 0 1 0 -8 0zM532 376 a4 4 0 1 0 8 0 a4 4 0 1 0 -8 0zM644 376 a4 4 0 1 0 8 0 a4 4 0 1 0 -8 0zM580 376 a4 4 0 1 0 8 0 a4 4 0 1 0 -8 0zM436 376 a4 4 0 1 0 8 0 a4 4 0 1 0 -8 0zM516 376 a4 4 0 1 0 8 0 a4 4 0 1 0 -8 0zM676 360 a4 4 0 1 0 8 0 a4 4 0 1 0 -8 0zM660 360 a4 4 0 1 0 8 0 a4 4 0 1 0 -8 0zM388 376 a4 4 0 1 0 8 0 a4 4 0 1 0 -8 0z" fill="url(#SvgjsLinearGradient4374)"></path><path d="M216 216L232 200L248 200L264 200M552 200L568 200L584 200M504 200L520 184L536 184L552 184M920 168L936 184L952 184L968 184L984 184L1000 184L1016 184L1032 184L1048 184L1064 184M184 216L200 232L216 232M984 168L1000 152L1016 152L1032 152M968 168L984 152L1000 136L1016 136M856 168L872 152L888 152L904 152L920 152L936 152L952 152L968 152L984 136M840 168L856 184L872 200M792 168L808 184L824 184L840 184M488 200L504 184M200 216L216 200M472 184L488 184M680 184L696 200L712 200L728 216L744 216L760 216L776 232L792 248L808 248L824 248L840 248L856 232L872 232L888 232L904 232L920 232L936 232L952 232L968 232L984 232L1000 232M648 184L664 200L680 200L696 216M904 168L920 184L936 200L952 200L968 200L984 200L1000 200L1016 200L1032 200L1048 200L1064 200L1080 200L1096 200L1112 200L1128 216L1144 216L1160 216L1176 216L1192 216L1208 216L1224 216L1240 216L1256 216L1272 216L1288 216L1304 216M-8 232L8 232L24 232L40 232L56 232L72 216L88 216L104 216L120 216L136 216L152 216L168 216L184 216L200 216L216 216L232 216L248 216L264 216L280 216L296 200L312 184L328 184L344 184L360 184L376 184L392 184L408 184L424 184L440 184L456 184L472 184L488 200L504 200L520 200L536 200L552 200L568 184L584 184L600 184L616 184L632 184L648 184L664 184L680 184L696 184L712 184L728 184L744 184L760 184L776 168L792 168L808 168L824 168L840 168L856 168L872 168L888 168L904 168L920 168L936 168L952 168L968 168L984 168L1000 168L1016 168" stroke="url(#SvgjsLinearGradient4374)" stroke-width="2.67"></path><path d="M1012 168 a4 4 0 1 0 8 0 a4 4 0 1 0 -8 0zM260 200 a4 4 0 1 0 8 0 a4 4 0 1 0 -8 0zM580 200 a4 4 0 1 0 8 0 a4 4 0 1 0 -8 0zM548 184 a4 4 0 1 0 8 0 a4 4 0 1 0 -8 0zM1060 184 a4 4 0 1 0 8 0 a4 4 0 1 0 -8 0zM212 232 a4 4 0 1 0 8 0 a4 4 0 1 0 -8 0zM1028 152 a4 4 0 1 0 8 0 a4 4 0 1 0 -8 0zM1012 136 a4 4 0 1 0 8 0 a4 4 0 1 0 -8 0zM980 136 a4 4 0 1 0 8 0 a4 4 0 1 0 -8 0zM868 200 a4 4 0 1 0 8 0 a4 4 0 1 0 -8 0zM836 184 a4 4 0 1 0 8 0 a4 4 0 1 0 -8 0zM500 184 a4 4 0 1 0 8 0 a4 4 0 1 0 -8 0zM212 200 a4 4 0 1 0 8 0 a4 4 0 1 0 -8 0zM484 184 a4 4 0 1 0 8 0 a4 4 0 1 0 -8 0zM996 232 a4 4 0 1 0 8 0 a4 4 0 1 0 -8 0zM692 216 a4 4 0 1 0 8 0 a4 4 0 1 0 -8 0zM1300 216 a4 4 0 1 0 8 0 a4 4 0 1 0 -8 0z" fill="url(#SvgjsLinearGradient4374)"></path><path d="M600 392L616 408L632 408L648 408L664 408L680 408L696 408L712 408M408 392L424 408L440 408L456 408L472 392L488 392L504 408M984 392L1000 376L1016 376M888 392L904 376L920 376L936 376L952 376L968 376L984 376L1000 360M488 376L504 376M808 392L824 376L840 376L856 376L872 376L888 376L904 360L920 360L936 360L952 360L968 360L984 360L1000 344L1016 344L1032 344L1048 344L1064 328M440 392L456 392M280 376L296 392L312 392L328 392L344 392M568 392L584 408L600 408M392 392L408 408M376 392L392 408L408 424M552 392L568 376M520 392L536 408L552 408L568 408M792 392L808 376M-8 344L8 344L24 344L40 344L56 344L72 344L88 344L104 344L120 344L136 344L152 360L168 360L184 360L200 360L216 376L232 376L248 376L264 376L280 376L296 376L312 376L328 376L344 376L360 392L376 392L392 392L408 392L424 392L440 392L456 376L472 376L488 376L504 392L520 392L536 392L552 392L568 392L584 392L600 392L616 392L632 392L648 392L664 392L680 392L696 392L712 392L728 392L744 392L760 392L776 392L792 392L808 392L824 392L840 392L856 392L872 392L888 392L904 392L920 392L936 392L952 392L968 392L984 392L1000 392L1016 392" stroke="url(#SvgjsLinearGradient4374)" stroke-width="2.67"></path><path d="M1012 392 a4 4 0 1 0 8 0 a4 4 0 1 0 -8 0zM708 408 a4 4 0 1 0 8 0 a4 4 0 1 0 -8 0zM500 408 a4 4 0 1 0 8 0 a4 4 0 1 0 -8 0zM1012 376 a4 4 0 1 0 8 0 a4 4 0 1 0 -8 0zM996 360 a4 4 0 1 0 8 0 a4 4 0 1 0 -8 0zM500 376 a4 4 0 1 0 8 0 a4 4 0 1 0 -8 0zM1060 328 a4 4 0 1 0 8 0 a4 4 0 1 0 -8 0zM452 392 a4 4 0 1 0 8 0 a4 4 0 1 0 -8 0zM340 392 a4 4 0 1 0 8 0 a4 4 0 1 0 -8 0zM596 408 a4 4 0 1 0 8 0 a4 4 0 1 0 -8 0zM404 408 a4 4 0 1 0 8 0 a4 4 0 1 0 -8 0zM404 424 a4 4 0 1 0 8 0 a4 4 0 1 0 -8 0zM564 376 a4 4 0 1 0 8 0 a4 4 0 1 0 -8 0zM564 408 a4 4 0 1 0 8 0 a4 4 0 1 0 -8 0zM804 376 a4 4 0 1 0 8 0 a4 4 0 1 0 -8 0z" fill="url(#SvgjsLinearGradient4374)"></path><path d="M440 168L456 152M808 136L824 120L840 104L856 104L872 104L888 104M744 168L760 152L776 136L792 120L808 120L824 104M824 136L840 152M1016 120L1032 120L1048 120M680 168L696 152L712 152L728 152L744 152L760 136L776 120M856 136L872 136L888 136L904 136M648 168L664 152L680 152L696 136L712 136L728 120L744 120L760 120M40 216L56 200M392 168L408 152L424 152L440 152L456 136L472 136M984 120L1000 104L1016 104L1032 104L1048 104L1064 104L1080 104L1096 120L1112 120L1128 120L1144 120L1160 120L1176 120M936 120L952 136L968 136M360 168L376 152M24 216L40 200M520 168L536 152L552 152L568 152L584 152M600 168L616 152L632 152L648 152L664 136M1048 136L1064 152L1080 152M-8 216L8 216L24 216L40 216L56 216L72 200L88 200L104 200L120 200L136 200L152 200L168 200L184 184L200 184L216 184L232 184L248 184L264 184L280 184L296 184L312 168L328 168L344 168L360 168L376 168L392 168L408 168L424 168L440 168L456 168L472 168L488 168L504 168L520 168L536 168L552 168L568 168L584 168L600 168L616 168L632 168L648 168L664 168L680 168L696 168L712 168L728 168L744 168L760 168L776 152L792 152L808 136L824 136L840 136L856 136L872 120L888 120L904 120L920 120L936 120L952 120L968 120L984 120L1000 120L1016 120L1032 136L1048 136L1064 136" stroke="url(#SvgjsLinearGradient4374)" stroke-width="2.67"></path><path d="M1060 136 a4 4 0 1 0 8 0 a4 4 0 1 0 -8 0zM452 152 a4 4 0 1 0 8 0 a4 4 0 1 0 -8 0zM884 104 a4 4 0 1 0 8 0 a4 4 0 1 0 -8 0zM820 104 a4 4 0 1 0 8 0 a4 4 0 1 0 -8 0zM836 152 a4 4 0 1 0 8 0 a4 4 0 1 0 -8 0zM1044 120 a4 4 0 1 0 8 0 a4 4 0 1 0 -8 0zM772 120 a4 4 0 1 0 8 0 a4 4 0 1 0 -8 0zM900 136 a4 4 0 1 0 8 0 a4 4 0 1 0 -8 0zM756 120 a4 4 0 1 0 8 0 a4 4 0 1 0 -8 0zM52 200 a4 4 0 1 0 8 0 a4 4 0 1 0 -8 0zM468 136 a4 4 0 1 0 8 0 a4 4 0 1 0 -8 0zM1172 120 a4 4 0 1 0 8 0 a4 4 0 1 0 -8 0zM964 136 a4 4 0 1 0 8 0 a4 4 0 1 0 -8 0zM372 152 a4 4 0 1 0 8 0 a4 4 0 1 0 -8 0zM36 200 a4 4 0 1 0 8 0 a4 4 0 1 0 -8 0zM580 152 a4 4 0 1 0 8 0 a4 4 0 1 0 -8 0zM660 136 a4 4 0 1 0 8 0 a4 4 0 1 0 -8 0zM1076 152 a4 4 0 1 0 8 0 a4 4 0 1 0 -8 0z" fill="url(#SvgjsLinearGradient4374)"></path><path d="M264 392L280 392M-8 360L8 360L24 360L40 360L56 360L72 360L88 360L104 360L120 360L136 360L152 376L168 376L184 376L200 376L216 392L232 392L248 392L264 392L280 408" stroke="url(#SvgjsLinearGradient4374)" stroke-width="2.67"></path><path d="M276 408 a4 4 0 1 0 8 0 a4 4 0 1 0 -8 0zM276 392 a4 4 0 1 0 8 0 a4 4 0 1 0 -8 0z" fill="url(#SvgjsLinearGradient4374)"></path><path d="M408 136L424 136L440 136M728 104L744 88L760 88L776 88M280 168L296 152L312 136M648 104L664 120L680 120M344 152L360 152M776 104L792 104L808 104M920 72L936 88L952 88M440 120L456 104M552 120L568 104L584 104L600 88L616 88L632 88L648 88L664 88L680 88L696 88L712 88M568 120L584 136L600 136L616 136L632 120L648 120M856 88L872 72M488 120L504 104L520 104L536 104L552 104L568 88L584 88L600 72M472 120L488 104L504 88L520 88L536 88L552 88L568 72L584 72M600 104L616 120M8 200L24 200M-8 200L8 200L24 184L40 184L56 184L72 184L88 184L104 184L120 184L136 184L152 168L168 168L184 168L200 168L216 168L232 168L248 168L264 168L280 168L296 168L312 152L328 152L344 152L360 136L376 136L392 136L408 136L424 120L440 120L456 120L472 120L488 120L504 120L520 120L536 120L552 120L568 120L584 120L600 104L616 104L632 104L648 104L664 104L680 104L696 104L712 104L728 104L744 104L760 104L776 104L792 88L808 88L824 88L840 88L856 88L872 88L888 72L904 72L920 72L936 72" stroke="url(#SvgjsLinearGradient4374)" stroke-width="2.67"></path><path d="M932 72 a4 4 0 1 0 8 0 a4 4 0 1 0 -8 0zM436 136 a4 4 0 1 0 8 0 a4 4 0 1 0 -8 0zM772 88 a4 4 0 1 0 8 0 a4 4 0 1 0 -8 0zM308 136 a4 4 0 1 0 8 0 a4 4 0 1 0 -8 0zM676 120 a4 4 0 1 0 8 0 a4 4 0 1 0 -8 0zM356 152 a4 4 0 1 0 8 0 a4 4 0 1 0 -8 0zM804 104 a4 4 0 1 0 8 0 a4 4 0 1 0 -8 0zM948 88 a4 4 0 1 0 8 0 a4 4 0 1 0 -8 0zM452 104 a4 4 0 1 0 8 0 a4 4 0 1 0 -8 0zM708 88 a4 4 0 1 0 8 0 a4 4 0 1 0 -8 0zM644 120 a4 4 0 1 0 8 0 a4 4 0 1 0 -8 0zM868 72 a4 4 0 1 0 8 0 a4 4 0 1 0 -8 0zM596 72 a4 4 0 1 0 8 0 a4 4 0 1 0 -8 0zM580 72 a4 4 0 1 0 8 0 a4 4 0 1 0 -8 0zM612 120 a4 4 0 1 0 8 0 a4 4 0 1 0 -8 0zM20 200 a4 4 0 1 0 8 0 a4 4 0 1 0 -8 0z" fill="url(#SvgjsLinearGradient4374)"></path><path d="M8 376L24 392L40 392L56 392L72 392L88 392L104 392L120 392L136 392M776 408L792 424L808 424L824 424L840 424L856 424L872 424L888 424L904 424L920 424M632 424L648 440L664 440L680 440L696 440L712 440L728 440L744 440L760 440M440 424L456 440L472 440L488 440L504 440L520 440L536 440L552 440L568 440L584 440L600 440L616 440L632 440L648 456L664 456L680 456M328 440L344 424M744 408L760 424L776 424M952 408L968 424L984 424L1000 424L1016 424L1032 424L1048 424L1064 424L1080 424L1096 424L1112 424L1128 424L1144 424L1160 424L1176 424L1192 424L1208 440L1224 440L1240 440L1256 440L1272 440M424 424L440 440M376 440L392 424M728 408L744 424M312 440L328 424L344 408L360 408L376 408M296 424L312 424L328 408M712 424L728 424M1032 408L1048 392L1064 392L1080 392L1096 392L1112 392M936 408L952 424L968 440L984 440L1000 440L1016 440L1032 440M360 440L376 424M-8 376L8 376L24 376L40 376L56 376L72 376L88 376L104 376L120 376L136 376L152 392L168 392L184 392L200 392L216 408L232 408L248 408L264 408L280 424L296 424L312 440L328 440L344 440L360 440L376 440L392 440L408 440L424 424L440 424L456 424L472 424L488 424L504 424L520 424L536 424L552 424L568 424L584 424L600 424L616 424L632 424L648 424L664 424L680 424L696 424L712 424L728 408L744 408L760 408L776 408L792 408L808 408L824 408L840 408L856 408L872 408L888 408L904 408L920 408L936 408L952 408L968 408L984 408L1000 408L1016 408L1032 408L1048 408" stroke="url(#SvgjsLinearGradient4374)" stroke-width="2.67"></path><path d="M1044 408 a4 4 0 1 0 8 0 a4 4 0 1 0 -8 0zM132 392 a4 4 0 1 0 8 0 a4 4 0 1 0 -8 0zM916 424 a4 4 0 1 0 8 0 a4 4 0 1 0 -8 0zM756 440 a4 4 0 1 0 8 0 a4 4 0 1 0 -8 0zM676 456 a4 4 0 1 0 8 0 a4 4 0 1 0 -8 0zM340 424 a4 4 0 1 0 8 0 a4 4 0 1 0 -8 0zM772 424 a4 4 0 1 0 8 0 a4 4 0 1 0 -8 0zM1268 440 a4 4 0 1 0 8 0 a4 4 0 1 0 -8 0zM436 440 a4 4 0 1 0 8 0 a4 4 0 1 0 -8 0zM388 424 a4 4 0 1 0 8 0 a4 4 0 1 0 -8 0zM740 424 a4 4 0 1 0 8 0 a4 4 0 1 0 -8 0zM372 408 a4 4 0 1 0 8 0 a4 4 0 1 0 -8 0zM324 408 a4 4 0 1 0 8 0 a4 4 0 1 0 -8 0zM724 424 a4 4 0 1 0 8 0 a4 4 0 1 0 -8 0zM1108 392 a4 4 0 1 0 8 0 a4 4 0 1 0 -8 0zM1028 440 a4 4 0 1 0 8 0 a4 4 0 1 0 -8 0zM372 424 a4 4 0 1 0 8 0 a4 4 0 1 0 -8 0z" fill="url(#SvgjsLinearGradient4374)"></path><path d="M1176 40L1192 56L1208 56L1224 56L1240 40L1256 40L1272 40L1288 40L1304 40L1320 40L1336 40L1352 40L1368 40L1384 40L1400 40M600 56L616 56L632 56L648 56L664 56M1144 40L1160 56L1176 56L1192 72L1208 72L1224 72L1240 72L1256 72L1272 72L1288 56M376 120L392 104M984 56L1000 72L1016 72L1032 72L1048 72L1064 72L1080 72L1096 72L1112 72L1128 72L1144 72L1160 72M360 120L376 104M280 136L296 136M472 72L488 88M456 72L472 88M536 56L552 72M312 120L328 104L344 104L360 104M1112 40L1128 56L1144 56M1032 40L1048 56L1064 56L1080 56L1096 56M1016 56L1032 56M952 56L968 72L984 72L1000 88L1016 88L1032 88L1048 88L1064 88L1080 88L1096 88L1112 88L1128 88M680 72L696 56M248 152L264 136M408 104L424 104L440 104L456 88M840 56L856 72M-8 184L8 184L24 168L40 168L56 168L72 168L88 168L104 168L120 168L136 168L152 152L168 152L184 152L200 152L216 152L232 152L248 152L264 152L280 136L296 120L312 120L328 120L344 120L360 120L376 120L392 120L408 104L424 88L440 72L456 72L472 72L488 72L504 72L520 72L536 56L552 56L568 56L584 56L600 56L616 72L632 72L648 72L664 72L680 72L696 72L712 72L728 72L744 72L760 72L776 72L792 72L808 72L824 72L840 56L856 56L872 56L888 56L904 56L920 56L936 56L952 56L968 56L984 56L1000 56L1016 56L1032 40L1048 40L1064 40L1080 40L1096 40L1112 40L1128 40L1144 40L1160 40L1176 40L1192 40L1208 40" stroke="url(#SvgjsLinearGradient4374)" stroke-width="2.67"></path><path d="M1204 40 a4 4 0 1 0 8 0 a4 4 0 1 0 -8 0zM1396 40 a4 4 0 1 0 8 0 a4 4 0 1 0 -8 0zM660 56 a4 4 0 1 0 8 0 a4 4 0 1 0 -8 0zM1284 56 a4 4 0 1 0 8 0 a4 4 0 1 0 -8 0zM388 104 a4 4 0 1 0 8 0 a4 4 0 1 0 -8 0zM1156 72 a4 4 0 1 0 8 0 a4 4 0 1 0 -8 0zM372 104 a4 4 0 1 0 8 0 a4 4 0 1 0 -8 0zM292 136 a4 4 0 1 0 8 0 a4 4 0 1 0 -8 0zM484 88 a4 4 0 1 0 8 0 a4 4 0 1 0 -8 0zM468 88 a4 4 0 1 0 8 0 a4 4 0 1 0 -8 0zM548 72 a4 4 0 1 0 8 0 a4 4 0 1 0 -8 0zM356 104 a4 4 0 1 0 8 0 a4 4 0 1 0 -8 0zM1140 56 a4 4 0 1 0 8 0 a4 4 0 1 0 -8 0zM1092 56 a4 4 0 1 0 8 0 a4 4 0 1 0 -8 0zM1028 56 a4 4 0 1 0 8 0 a4 4 0 1 0 -8 0zM1124 88 a4 4 0 1 0 8 0 a4 4 0 1 0 -8 0zM692 56 a4 4 0 1 0 8 0 a4 4 0 1 0 -8 0zM260 136 a4 4 0 1 0 8 0 a4 4 0 1 0 -8 0zM452 88 a4 4 0 1 0 8 0 a4 4 0 1 0 -8 0zM852 72 a4 4 0 1 0 8 0 a4 4 0 1 0 -8 0z" fill="url(#SvgjsLinearGradient4374)"></path><path d="M728 488L744 472L760 456L776 456L792 456L808 456M616 488L632 472L648 472L664 472M472 472L488 456L504 456L520 456L536 456M600 488L616 472L632 456M456 456L472 456M712 488L728 472L744 456M744 488L760 488L776 488L792 488M584 472L600 472L616 456M568 472L584 456L600 456M696 488L712 472L728 456M680 488L696 472M552 472L568 456M-8 392L8 408L24 408L40 408L56 408L72 408L88 408L104 408L120 408L136 408L152 408L168 408L184 408L200 408L216 424L232 424L248 424L264 424L280 440L296 440L312 456L328 456L344 456L360 456L376 456L392 456L408 456L424 456L440 456L456 456L472 472L488 472L504 472L520 472L536 472L552 472L568 472L584 472L600 488L616 488L632 488L648 488L664 488L680 488L696 488L712 488L728 488L744 488L760 472L776 472L792 472L808 472" stroke="url(#SvgjsLinearGradient4374)" stroke-width="2.67"></path><path d="M804 472 a4 4 0 1 0 8 0 a4 4 0 1 0 -8 0zM804 456 a4 4 0 1 0 8 0 a4 4 0 1 0 -8 0zM660 472 a4 4 0 1 0 8 0 a4 4 0 1 0 -8 0zM532 456 a4 4 0 1 0 8 0 a4 4 0 1 0 -8 0zM628 456 a4 4 0 1 0 8 0 a4 4 0 1 0 -8 0zM468 456 a4 4 0 1 0 8 0 a4 4 0 1 0 -8 0zM740 456 a4 4 0 1 0 8 0 a4 4 0 1 0 -8 0zM788 488 a4 4 0 1 0 8 0 a4 4 0 1 0 -8 0zM612 456 a4 4 0 1 0 8 0 a4 4 0 1 0 -8 0zM596 456 a4 4 0 1 0 8 0 a4 4 0 1 0 -8 0zM724 456 a4 4 0 1 0 8 0 a4 4 0 1 0 -8 0zM692 472 a4 4 0 1 0 8 0 a4 4 0 1 0 -8 0zM564 456 a4 4 0 1 0 8 0 a4 4 0 1 0 -8 0z" fill="url(#SvgjsLinearGradient4374)"></path><path d="M296 104L312 104M792 56L808 40M72 152L88 136L104 136L120 136L136 136M264 120L280 104M760 56L776 40L792 40M744 56L760 40M728 56L744 40M712 40L728 40M-8 168L8 168L24 152L40 152L56 152L72 152L88 152L104 152L120 152L136 152L152 136L168 136L184 136L200 136L216 136L232 120L248 120L264 120L280 120L296 104L312 88L328 88L344 88L360 88L376 88L392 88L408 88L424 72L440 56L456 56L472 56L488 56L504 56L520 56L536 40L552 40L568 40L584 40L600 40L616 40L632 40L648 40L664 40L680 40L696 40L712 40L728 56L744 56L760 56L776 56L792 56L808 56L824 56L840 40L856 40L872 40L888 40L904 40L920 40L936 40L952 40L968 40L984 40L1000 40L1016 40" stroke="url(#SvgjsLinearGradient4374)" stroke-width="2.67"></path><path d="M1012 40 a4 4 0 1 0 8 0 a4 4 0 1 0 -8 0zM308 104 a4 4 0 1 0 8 0 a4 4 0 1 0 -8 0zM804 40 a4 4 0 1 0 8 0 a4 4 0 1 0 -8 0zM132 136 a4 4 0 1 0 8 0 a4 4 0 1 0 -8 0zM276 104 a4 4 0 1 0 8 0 a4 4 0 1 0 -8 0zM788 40 a4 4 0 1 0 8 0 a4 4 0 1 0 -8 0zM756 40 a4 4 0 1 0 8 0 a4 4 0 1 0 -8 0zM740 40 a4 4 0 1 0 8 0 a4 4 0 1 0 -8 0zM724 40 a4 4 0 1 0 8 0 a4 4 0 1 0 -8 0z" fill="url(#SvgjsLinearGradient4374)"></path><path d="M328 472L344 488M1048 504L1064 488L1080 488L1096 488L1112 472L1128 472L1144 472L1160 472L1176 472L1192 472L1208 472L1224 472L1240 472L1256 472L1272 472L1288 472L1304 488L1320 488L1336 488L1352 488M520 488L536 504L552 520L568 520M1064 504L1080 520L1096 520L1112 520L1128 520L1144 520L1160 520L1176 536L1192 536L1208 536L1224 536L1240 536L1256 536M408 472L424 488L440 488L456 488M648 504L664 520L680 520L696 520L712 520L728 520L744 520L760 536L776 536L792 536L808 536L824 536L840 536L856 536L872 536L888 536L904 536L920 536L936 536L952 536L968 536L984 536L1000 536L1016 536L1032 536M1144 504L1160 488L1176 488L1192 488L1208 488L1224 488L1240 488L1256 488L1272 488L1288 488L1304 504L1320 504L1336 504L1352 504L1368 504L1384 520L1400 520M616 504L632 520L648 520L664 536L680 536L696 536L712 536L728 536L744 536M840 520L856 504L872 488L888 488L904 488L920 488L936 488L952 488L968 488L984 488L1000 472L1016 472L1032 472L1048 472L1064 472L1080 472L1096 472M1128 504L1144 488M56 424L72 440L88 440L104 440L120 440L136 440M568 488L584 504L600 520L616 520L632 536L648 536M920 520L936 504L952 504M744 504L760 504L776 504L792 504L808 504L824 504L840 504L856 488L872 472L888 472L904 472L920 472L936 472L952 472L968 472L984 472L1000 456L1016 456L1032 456M552 488L568 504M968 504L984 520L1000 520L1016 520L1032 520L1048 520L1064 520L1080 536M360 472L376 488L392 488L408 488L424 504L440 504L456 504M24 424L40 440L56 440L72 456L88 456L104 456L120 456L136 456L152 456L168 456L184 456L200 456L216 456L232 456L248 456L264 456L280 472L296 472L312 488L328 488L344 504L360 504L376 504L392 504M-8 408L8 424L24 424L40 424L56 424L72 424L88 424L104 424L120 424L136 424L152 424L168 424L184 424L200 424L216 440L232 440L248 440L264 440L280 456L296 456L312 472L328 472L344 472L360 472L376 472L392 472L408 472L424 472L440 472L456 472L472 488L488 488L504 488L520 488L536 488L552 488L568 488L584 488L600 504L616 504L632 504L648 504L664 504L680 504L696 504L712 504L728 504L744 504L760 520L776 520L792 520L808 520L824 520L840 520L856 520L872 520L888 520L904 520L920 520L936 520L952 520L968 504L984 504L1000 488L1016 488L1032 488L1048 504L1064 504L1080 504L1096 504L1112 504L1128 504L1144 504L1160 504L1176 504" stroke="url(#SvgjsLinearGradient4374)" stroke-width="2.67"></path><path d="M1172 504 a4 4 0 1 0 8 0 a4 4 0 1 0 -8 0zM340 488 a4 4 0 1 0 8 0 a4 4 0 1 0 -8 0zM1348 488 a4 4 0 1 0 8 0 a4 4 0 1 0 -8 0zM564 520 a4 4 0 1 0 8 0 a4 4 0 1 0 -8 0zM1252 536 a4 4 0 1 0 8 0 a4 4 0 1 0 -8 0zM452 488 a4 4 0 1 0 8 0 a4 4 0 1 0 -8 0zM1028 536 a4 4 0 1 0 8 0 a4 4 0 1 0 -8 0zM1396 520 a4 4 0 1 0 8 0 a4 4 0 1 0 -8 0zM740 536 a4 4 0 1 0 8 0 a4 4 0 1 0 -8 0zM1092 472 a4 4 0 1 0 8 0 a4 4 0 1 0 -8 0zM1140 488 a4 4 0 1 0 8 0 a4 4 0 1 0 -8 0zM132 440 a4 4 0 1 0 8 0 a4 4 0 1 0 -8 0zM644 536 a4 4 0 1 0 8 0 a4 4 0 1 0 -8 0zM948 504 a4 4 0 1 0 8 0 a4 4 0 1 0 -8 0zM1028 456 a4 4 0 1 0 8 0 a4 4 0 1 0 -8 0zM564 504 a4 4 0 1 0 8 0 a4 4 0 1 0 -8 0zM1076 536 a4 4 0 1 0 8 0 a4 4 0 1 0 -8 0zM452 504 a4 4 0 1 0 8 0 a4 4 0 1 0 -8 0zM388 504 a4 4 0 1 0 8 0 a4 4 0 1 0 -8 0z" fill="url(#SvgjsLinearGradient4374)"></path><path d="M392 72L408 56L424 40M200 120L216 104L232 88M248 104L264 104M40 136L56 136L72 136M184 120L200 104L216 88M24 136L40 120L56 104L72 104L88 104L104 104L120 104L136 104L152 104L168 104L184 104L200 88M328 72L344 56L360 56L376 56L392 56L408 40M312 72L328 56L344 40L360 40L376 40M-8 152L8 152L24 136L40 136L56 120L72 120L88 120L104 120L120 120L136 120L152 120L168 120L184 120L200 120L216 120L232 104L248 104L264 88L280 88L296 88L312 72L328 72L344 72L360 72L376 72L392 72L408 72L424 56L440 40L456 40L472 40L488 40L504 40L520 40" stroke="url(#SvgjsLinearGradient4374)" stroke-width="2.67"></path><path d="M516 40 a4 4 0 1 0 8 0 a4 4 0 1 0 -8 0zM420 40 a4 4 0 1 0 8 0 a4 4 0 1 0 -8 0zM228 88 a4 4 0 1 0 8 0 a4 4 0 1 0 -8 0zM260 104 a4 4 0 1 0 8 0 a4 4 0 1 0 -8 0zM68 136 a4 4 0 1 0 8 0 a4 4 0 1 0 -8 0zM212 88 a4 4 0 1 0 8 0 a4 4 0 1 0 -8 0zM196 88 a4 4 0 1 0 8 0 a4 4 0 1 0 -8 0zM404 40 a4 4 0 1 0 8 0 a4 4 0 1 0 -8 0zM372 40 a4 4 0 1 0 8 0 a4 4 0 1 0 -8 0z" fill="url(#SvgjsLinearGradient4374)"></path></g></g><defs><mask id="SvgjsMask4373"><rect width="1438" height="560" fill="#ffffff"></rect></mask><linearGradient x1="0" y1="280" x2="1438" y2="280" gradientUnits="userSpaceOnUse" id="SvgjsLinearGradient4374"><stop stop-color="rgba(255, 0, 145, 1)" offset="0"></stop><stop stop-color="rgba(0, 255, 18, 1)" offset="1"></stop></linearGradient><mask id="SvgjsMask4375"><rect width="1438" height="560" fill="white"></rect><path d="M886 280 a2 2 0 1 0 4 0 a2 2 0 1 0 -4 0zM406 264 a2 2 0 1 0 4 0 a2 2 0 1 0 -4 0zM342 264 a2 2 0 1 0 4 0 a2 2 0 1 0 -4 0zM662 264 a2 2 0 1 0 4 0 a2 2 0 1 0 -4 0zM790 264 a2 2 0 1 0 4 0 a2 2 0 1 0 -4 0zM310 264 a2 2 0 1 0 4 0 a2 2 0 1 0 -4 0zM630 280 a2 2 0 1 0 4 0 a2 2 0 1 0 -4 0zM1014 280 a2 2 0 1 0 4 0 a2 2 0 1 0 -4 0zM502 264 a2 2 0 1 0 4 0 a2 2 0 1 0 -4 0zM822 264 a2 2 0 1 0 4 0 a2 2 0 1 0 -4 0zM518 280 a2 2 0 1 0 4 0 a2 2 0 1 0 -4 0zM646 312 a2 2 0 1 0 4 0 a2 2 0 1 0 -4 0zM918 264 a2 2 0 1 0 4 0 a2 2 0 1 0 -4 0zM726 248 a2 2 0 1 0 4 0 a2 2 0 1 0 -4 0zM1158 264 a2 2 0 1 0 4 0 a2 2 0 1 0 -4 0z" fill="black"></path><path d="M774 312 a2 2 0 1 0 4 0 a2 2 0 1 0 -4 0zM246 328 a2 2 0 1 0 4 0 a2 2 0 1 0 -4 0zM406 312 a2 2 0 1 0 4 0 a2 2 0 1 0 -4 0zM502 312 a2 2 0 1 0 4 0 a2 2 0 1 0 -4 0zM374 296 a2 2 0 1 0 4 0 a2 2 0 1 0 -4 0zM582 312 a2 2 0 1 0 4 0 a2 2 0 1 0 -4 0zM358 296 a2 2 0 1 0 4 0 a2 2 0 1 0 -4 0zM742 312 a2 2 0 1 0 4 0 a2 2 0 1 0 -4 0zM534 328 a2 2 0 1 0 4 0 a2 2 0 1 0 -4 0zM230 328 a2 2 0 1 0 4 0 a2 2 0 1 0 -4 0zM726 296 a2 2 0 1 0 4 0 a2 2 0 1 0 -4 0zM822 312 a2 2 0 1 0 4 0 a2 2 0 1 0 -4 0zM342 296 a2 2 0 1 0 4 0 a2 2 0 1 0 -4 0z" fill="black"></path><path d="M630 264 a2 2 0 1 0 4 0 a2 2 0 1 0 -4 0zM598 248 a2 2 0 1 0 4 0 a2 2 0 1 0 -4 0zM662 232 a2 2 0 1 0 4 0 a2 2 0 1 0 -4 0zM406 232 a2 2 0 1 0 4 0 a2 2 0 1 0 -4 0zM150 248 a2 2 0 1 0 4 0 a2 2 0 1 0 -4 0zM310 232 a2 2 0 1 0 4 0 a2 2 0 1 0 -4 0zM262 264 a2 2 0 1 0 4 0 a2 2 0 1 0 -4 0zM470 264 a2 2 0 1 0 4 0 a2 2 0 1 0 -4 0zM550 248 a2 2 0 1 0 4 0 a2 2 0 1 0 -4 0zM614 280 a2 2 0 1 0 4 0 a2 2 0 1 0 -4 0zM534 248 a2 2 0 1 0 4 0 a2 2 0 1 0 -4 0z" fill="black"></path><path d="M886 328 a2 2 0 1 0 4 0 a2 2 0 1 0 -4 0zM374 344 a2 2 0 1 0 4 0 a2 2 0 1 0 -4 0zM838 344 a2 2 0 1 0 4 0 a2 2 0 1 0 -4 0zM150 312 a2 2 0 1 0 4 0 a2 2 0 1 0 -4 0zM902 312 a2 2 0 1 0 4 0 a2 2 0 1 0 -4 0zM774 360 a2 2 0 1 0 4 0 a2 2 0 1 0 -4 0zM742 360 a2 2 0 1 0 4 0 a2 2 0 1 0 -4 0zM918 344 a2 2 0 1 0 4 0 a2 2 0 1 0 -4 0zM278 328 a2 2 0 1 0 4 0 a2 2 0 1 0 -4 0zM854 360 a2 2 0 1 0 4 0 a2 2 0 1 0 -4 0zM822 344 a2 2 0 1 0 4 0 a2 2 0 1 0 -4 0z" fill="black"></path><path d="M614 216 a2 2 0 1 0 4 0 a2 2 0 1 0 -4 0zM422 216 a2 2 0 1 0 4 0 a2 2 0 1 0 -4 0zM582 232 a2 2 0 1 0 4 0 a2 2 0 1 0 -4 0zM374 216 a2 2 0 1 0 4 0 a2 2 0 1 0 -4 0zM166 232 a2 2 0 1 0 4 0 a2 2 0 1 0 -4 0zM470 200 a2 2 0 1 0 4 0 a2 2 0 1 0 -4 0zM630 200 a2 2 0 1 0 4 0 a2 2 0 1 0 -4 0zM118 248 a2 2 0 1 0 4 0 a2 2 0 1 0 -4 0zM598 200 a2 2 0 1 0 4 0 a2 2 0 1 0 -4 0zM102 232 a2 2 0 1 0 4 0 a2 2 0 1 0 -4 0zM454 200 a2 2 0 1 0 4 0 a2 2 0 1 0 -4 0z" fill="black"></path><path d="M774 376 a2 2 0 1 0 4 0 a2 2 0 1 0 -4 0zM534 376 a2 2 0 1 0 4 0 a2 2 0 1 0 -4 0zM646 376 a2 2 0 1 0 4 0 a2 2 0 1 0 -4 0zM582 376 a2 2 0 1 0 4 0 a2 2 0 1 0 -4 0zM438 376 a2 2 0 1 0 4 0 a2 2 0 1 0 -4 0zM518 376 a2 2 0 1 0 4 0 a2 2 0 1 0 -4 0zM678 360 a2 2 0 1 0 4 0 a2 2 0 1 0 -4 0zM662 360 a2 2 0 1 0 4 0 a2 2 0 1 0 -4 0zM390 376 a2 2 0 1 0 4 0 a2 2 0 1 0 -4 0z" fill="black"></path><path d="M1014 168 a2 2 0 1 0 4 0 a2 2 0 1 0 -4 0zM262 200 a2 2 0 1 0 4 0 a2 2 0 1 0 -4 0zM582 200 a2 2 0 1 0 4 0 a2 2 0 1 0 -4 0zM550 184 a2 2 0 1 0 4 0 a2 2 0 1 0 -4 0zM1062 184 a2 2 0 1 0 4 0 a2 2 0 1 0 -4 0zM214 232 a2 2 0 1 0 4 0 a2 2 0 1 0 -4 0zM1030 152 a2 2 0 1 0 4 0 a2 2 0 1 0 -4 0zM1014 136 a2 2 0 1 0 4 0 a2 2 0 1 0 -4 0zM982 136 a2 2 0 1 0 4 0 a2 2 0 1 0 -4 0zM870 200 a2 2 0 1 0 4 0 a2 2 0 1 0 -4 0zM838 184 a2 2 0 1 0 4 0 a2 2 0 1 0 -4 0zM502 184 a2 2 0 1 0 4 0 a2 2 0 1 0 -4 0zM214 200 a2 2 0 1 0 4 0 a2 2 0 1 0 -4 0zM486 184 a2 2 0 1 0 4 0 a2 2 0 1 0 -4 0zM998 232 a2 2 0 1 0 4 0 a2 2 0 1 0 -4 0zM694 216 a2 2 0 1 0 4 0 a2 2 0 1 0 -4 0zM1302 216 a2 2 0 1 0 4 0 a2 2 0 1 0 -4 0z" fill="black"></path><path d="M1014 392 a2 2 0 1 0 4 0 a2 2 0 1 0 -4 0zM710 408 a2 2 0 1 0 4 0 a2 2 0 1 0 -4 0zM502 408 a2 2 0 1 0 4 0 a2 2 0 1 0 -4 0zM1014 376 a2 2 0 1 0 4 0 a2 2 0 1 0 -4 0zM998 360 a2 2 0 1 0 4 0 a2 2 0 1 0 -4 0zM502 376 a2 2 0 1 0 4 0 a2 2 0 1 0 -4 0zM1062 328 a2 2 0 1 0 4 0 a2 2 0 1 0 -4 0zM454 392 a2 2 0 1 0 4 0 a2 2 0 1 0 -4 0zM342 392 a2 2 0 1 0 4 0 a2 2 0 1 0 -4 0zM598 408 a2 2 0 1 0 4 0 a2 2 0 1 0 -4 0zM406 408 a2 2 0 1 0 4 0 a2 2 0 1 0 -4 0zM406 424 a2 2 0 1 0 4 0 a2 2 0 1 0 -4 0zM566 376 a2 2 0 1 0 4 0 a2 2 0 1 0 -4 0zM566 408 a2 2 0 1 0 4 0 a2 2 0 1 0 -4 0zM806 376 a2 2 0 1 0 4 0 a2 2 0 1 0 -4 0z" fill="black"></path><path d="M1062 136 a2 2 0 1 0 4 0 a2 2 0 1 0 -4 0zM454 152 a2 2 0 1 0 4 0 a2 2 0 1 0 -4 0zM886 104 a2 2 0 1 0 4 0 a2 2 0 1 0 -4 0zM822 104 a2 2 0 1 0 4 0 a2 2 0 1 0 -4 0zM838 152 a2 2 0 1 0 4 0 a2 2 0 1 0 -4 0zM1046 120 a2 2 0 1 0 4 0 a2 2 0 1 0 -4 0zM774 120 a2 2 0 1 0 4 0 a2 2 0 1 0 -4 0zM902 136 a2 2 0 1 0 4 0 a2 2 0 1 0 -4 0zM758 120 a2 2 0 1 0 4 0 a2 2 0 1 0 -4 0zM54 200 a2 2 0 1 0 4 0 a2 2 0 1 0 -4 0zM470 136 a2 2 0 1 0 4 0 a2 2 0 1 0 -4 0zM1174 120 a2 2 0 1 0 4 0 a2 2 0 1 0 -4 0zM966 136 a2 2 0 1 0 4 0 a2 2 0 1 0 -4 0zM374 152 a2 2 0 1 0 4 0 a2 2 0 1 0 -4 0zM38 200 a2 2 0 1 0 4 0 a2 2 0 1 0 -4 0zM582 152 a2 2 0 1 0 4 0 a2 2 0 1 0 -4 0zM662 136 a2 2 0 1 0 4 0 a2 2 0 1 0 -4 0zM1078 152 a2 2 0 1 0 4 0 a2 2 0 1 0 -4 0z" fill="black"></path><path d="M278 408 a2 2 0 1 0 4 0 a2 2 0 1 0 -4 0zM278 392 a2 2 0 1 0 4 0 a2 2 0 1 0 -4 0z" fill="black"></path><path d="M934 72 a2 2 0 1 0 4 0 a2 2 0 1 0 -4 0zM438 136 a2 2 0 1 0 4 0 a2 2 0 1 0 -4 0zM774 88 a2 2 0 1 0 4 0 a2 2 0 1 0 -4 0zM310 136 a2 2 0 1 0 4 0 a2 2 0 1 0 -4 0zM678 120 a2 2 0 1 0 4 0 a2 2 0 1 0 -4 0zM358 152 a2 2 0 1 0 4 0 a2 2 0 1 0 -4 0zM806 104 a2 2 0 1 0 4 0 a2 2 0 1 0 -4 0zM950 88 a2 2 0 1 0 4 0 a2 2 0 1 0 -4 0zM454 104 a2 2 0 1 0 4 0 a2 2 0 1 0 -4 0zM710 88 a2 2 0 1 0 4 0 a2 2 0 1 0 -4 0zM646 120 a2 2 0 1 0 4 0 a2 2 0 1 0 -4 0zM870 72 a2 2 0 1 0 4 0 a2 2 0 1 0 -4 0zM598 72 a2 2 0 1 0 4 0 a2 2 0 1 0 -4 0zM582 72 a2 2 0 1 0 4 0 a2 2 0 1 0 -4 0zM614 120 a2 2 0 1 0 4 0 a2 2 0 1 0 -4 0zM22 200 a2 2 0 1 0 4 0 a2 2 0 1 0 -4 0z" fill="black"></path><path d="M1046 408 a2 2 0 1 0 4 0 a2 2 0 1 0 -4 0zM134 392 a2 2 0 1 0 4 0 a2 2 0 1 0 -4 0zM918 424 a2 2 0 1 0 4 0 a2 2 0 1 0 -4 0zM758 440 a2 2 0 1 0 4 0 a2 2 0 1 0 -4 0zM678 456 a2 2 0 1 0 4 0 a2 2 0 1 0 -4 0zM342 424 a2 2 0 1 0 4 0 a2 2 0 1 0 -4 0zM774 424 a2 2 0 1 0 4 0 a2 2 0 1 0 -4 0zM1270 440 a2 2 0 1 0 4 0 a2 2 0 1 0 -4 0zM438 440 a2 2 0 1 0 4 0 a2 2 0 1 0 -4 0zM390 424 a2 2 0 1 0 4 0 a2 2 0 1 0 -4 0zM742 424 a2 2 0 1 0 4 0 a2 2 0 1 0 -4 0zM374 408 a2 2 0 1 0 4 0 a2 2 0 1 0 -4 0zM326 408 a2 2 0 1 0 4 0 a2 2 0 1 0 -4 0zM726 424 a2 2 0 1 0 4 0 a2 2 0 1 0 -4 0zM1110 392 a2 2 0 1 0 4 0 a2 2 0 1 0 -4 0zM1030 440 a2 2 0 1 0 4 0 a2 2 0 1 0 -4 0zM374 424 a2 2 0 1 0 4 0 a2 2 0 1 0 -4 0z" fill="black"></path><path d="M1206 40 a2 2 0 1 0 4 0 a2 2 0 1 0 -4 0zM1398 40 a2 2 0 1 0 4 0 a2 2 0 1 0 -4 0zM662 56 a2 2 0 1 0 4 0 a2 2 0 1 0 -4 0zM1286 56 a2 2 0 1 0 4 0 a2 2 0 1 0 -4 0zM390 104 a2 2 0 1 0 4 0 a2 2 0 1 0 -4 0zM1158 72 a2 2 0 1 0 4 0 a2 2 0 1 0 -4 0zM374 104 a2 2 0 1 0 4 0 a2 2 0 1 0 -4 0zM294 136 a2 2 0 1 0 4 0 a2 2 0 1 0 -4 0zM486 88 a2 2 0 1 0 4 0 a2 2 0 1 0 -4 0zM470 88 a2 2 0 1 0 4 0 a2 2 0 1 0 -4 0zM550 72 a2 2 0 1 0 4 0 a2 2 0 1 0 -4 0zM358 104 a2 2 0 1 0 4 0 a2 2 0 1 0 -4 0zM1142 56 a2 2 0 1 0 4 0 a2 2 0 1 0 -4 0zM1094 56 a2 2 0 1 0 4 0 a2 2 0 1 0 -4 0zM1030 56 a2 2 0 1 0 4 0 a2 2 0 1 0 -4 0zM1126 88 a2 2 0 1 0 4 0 a2 2 0 1 0 -4 0zM694 56 a2 2 0 1 0 4 0 a2 2 0 1 0 -4 0zM262 136 a2 2 0 1 0 4 0 a2 2 0 1 0 -4 0zM454 88 a2 2 0 1 0 4 0 a2 2 0 1 0 -4 0zM854 72 a2 2 0 1 0 4 0 a2 2 0 1 0 -4 0z" fill="black"></path><path d="M806 472 a2 2 0 1 0 4 0 a2 2 0 1 0 -4 0zM806 456 a2 2 0 1 0 4 0 a2 2 0 1 0 -4 0zM662 472 a2 2 0 1 0 4 0 a2 2 0 1 0 -4 0zM534 456 a2 2 0 1 0 4 0 a2 2 0 1 0 -4 0zM630 456 a2 2 0 1 0 4 0 a2 2 0 1 0 -4 0zM470 456 a2 2 0 1 0 4 0 a2 2 0 1 0 -4 0zM742 456 a2 2 0 1 0 4 0 a2 2 0 1 0 -4 0zM790 488 a2 2 0 1 0 4 0 a2 2 0 1 0 -4 0zM614 456 a2 2 0 1 0 4 0 a2 2 0 1 0 -4 0zM598 456 a2 2 0 1 0 4 0 a2 2 0 1 0 -4 0zM726 456 a2 2 0 1 0 4 0 a2 2 0 1 0 -4 0zM694 472 a2 2 0 1 0 4 0 a2 2 0 1 0 -4 0zM566 456 a2 2 0 1 0 4 0 a2 2 0 1 0 -4 0z" fill="black"></path><path d="M1014 40 a2 2 0 1 0 4 0 a2 2 0 1 0 -4 0zM310 104 a2 2 0 1 0 4 0 a2 2 0 1 0 -4 0zM806 40 a2 2 0 1 0 4 0 a2 2 0 1 0 -4 0zM134 136 a2 2 0 1 0 4 0 a2 2 0 1 0 -4 0zM278 104 a2 2 0 1 0 4 0 a2 2 0 1 0 -4 0zM790 40 a2 2 0 1 0 4 0 a2 2 0 1 0 -4 0zM758 40 a2 2 0 1 0 4 0 a2 2 0 1 0 -4 0zM742 40 a2 2 0 1 0 4 0 a2 2 0 1 0 -4 0zM726 40 a2 2 0 1 0 4 0 a2 2 0 1 0 -4 0z" fill="black"></path><path d="M1174 504 a2 2 0 1 0 4 0 a2 2 0 1 0 -4 0zM342 488 a2 2 0 1 0 4 0 a2 2 0 1 0 -4 0zM1350 488 a2 2 0 1 0 4 0 a2 2 0 1 0 -4 0zM566 520 a2 2 0 1 0 4 0 a2 2 0 1 0 -4 0zM1254 536 a2 2 0 1 0 4 0 a2 2 0 1 0 -4 0zM454 488 a2 2 0 1 0 4 0 a2 2 0 1 0 -4 0zM1030 536 a2 2 0 1 0 4 0 a2 2 0 1 0 -4 0zM1398 520 a2 2 0 1 0 4 0 a2 2 0 1 0 -4 0zM742 536 a2 2 0 1 0 4 0 a2 2 0 1 0 -4 0zM1094 472 a2 2 0 1 0 4 0 a2 2 0 1 0 -4 0zM1142 488 a2 2 0 1 0 4 0 a2 2 0 1 0 -4 0zM134 440 a2 2 0 1 0 4 0 a2 2 0 1 0 -4 0zM646 536 a2 2 0 1 0 4 0 a2 2 0 1 0 -4 0zM950 504 a2 2 0 1 0 4 0 a2 2 0 1 0 -4 0zM1030 456 a2 2 0 1 0 4 0 a2 2 0 1 0 -4 0zM566 504 a2 2 0 1 0 4 0 a2 2 0 1 0 -4 0zM1078 536 a2 2 0 1 0 4 0 a2 2 0 1 0 -4 0zM454 504 a2 2 0 1 0 4 0 a2 2 0 1 0 -4 0zM390 504 a2 2 0 1 0 4 0 a2 2 0 1 0 -4 0z" fill="black"></path><path d="M518 40 a2 2 0 1 0 4 0 a2 2 0 1 0 -4 0zM422 40 a2 2 0 1 0 4 0 a2 2 0 1 0 -4 0zM230 88 a2 2 0 1 0 4 0 a2 2 0 1 0 -4 0zM262 104 a2 2 0 1 0 4 0 a2 2 0 1 0 -4 0zM70 136 a2 2 0 1 0 4 0 a2 2 0 1 0 -4 0zM214 88 a2 2 0 1 0 4 0 a2 2 0 1 0 -4 0zM198 88 a2 2 0 1 0 4 0 a2 2 0 1 0 -4 0zM406 40 a2 2 0 1 0 4 0 a2 2 0 1 0 -4 0zM374 40 a2 2 0 1 0 4 0 a2 2 0 1 0 -4 0z" fill="black"></path></mask></defs></svg>